<?xml version="1.0" encoding="UTF-8" standalone="no"?>
<!-- Created with Inkscape (http://www.inkscape.org/) -->

<svg
   xmlns:dc="http://purl.org/dc/elements/1.1/"
   xmlns:cc="http://creativecommons.org/ns#"
   xmlns:rdf="http://www.w3.org/1999/02/22-rdf-syntax-ns#"
   xmlns:svg="http://www.w3.org/2000/svg"
   xmlns="http://www.w3.org/2000/svg"
   xmlns:sodipodi="http://sodipodi.sourceforge.net/DTD/sodipodi-0.dtd"
   xmlns:inkscape="http://www.inkscape.org/namespaces/inkscape"
   width="256"
   height="256"
   viewBox="0 0 256 256"
   version="1.1"
   id="svg1681"
   inkscape:version="0.92.5 (2060ec1f9f, 2020-04-08)"
   sodipodi:docname="logo.svg"
   inkscape:export-filename="icon-256x256.png"
   inkscape:export-xdpi="96.000008"
   inkscape:export-ydpi="96.000008">
  <title
     id="title2401">Evangelio WordPress Plugin - Logo</title>
  <defs
     id="defs1675" />
  <sodipodi:namedview
     id="base"
     pagecolor="#ffffff"
     bordercolor="#666666"
     borderopacity="1.0"
     inkscape:pageopacity="1"
     inkscape:pageshadow="2"
     inkscape:zoom="2"
     inkscape:cx="165.4603"
     inkscape:cy="175.37391"
     inkscape:document-units="px"
     inkscape:current-layer="layer1"
     showgrid="false"
     inkscape:showpageshadow="false"
     inkscape:pagecheckerboard="false"
     units="px"
     inkscape:window-width="2560"
     inkscape:window-height="1391"
     inkscape:window-x="0"
     inkscape:window-y="25"
     inkscape:window-maximized="1" />
  <metadata
     id="metadata1678">
    <rdf:RDF>
      <cc:Work
         rdf:about="">
        <dc:format>image/svg+xml</dc:format>
        <dc:type
           rdf:resource="http://purl.org/dc/dcmitype/StillImage" />
        <dc:title>Evangelio WordPress Plugin - Logo</dc:title>
        <dc:creator>
          <cc:Agent>
            <dc:title>Marek Sierociński</dc:title>
          </cc:Agent>
        </dc:creator>
        <dc:date>2021-03-09</dc:date>
        <cc:license
           rdf:resource="http://creativecommons.org/licenses/by-nc-sa/4.0/" />
      </cc:Work>
      <cc:License
         rdf:about="http://creativecommons.org/licenses/by-nc-sa/4.0/">
        <cc:permits
           rdf:resource="http://creativecommons.org/ns#Reproduction" />
        <cc:permits
           rdf:resource="http://creativecommons.org/ns#Distribution" />
        <cc:requires
           rdf:resource="http://creativecommons.org/ns#Notice" />
        <cc:requires
           rdf:resource="http://creativecommons.org/ns#Attribution" />
        <cc:prohibits
           rdf:resource="http://creativecommons.org/ns#CommercialUse" />
        <cc:permits
           rdf:resource="http://creativecommons.org/ns#DerivativeWorks" />
        <cc:requires
           rdf:resource="http://creativecommons.org/ns#ShareAlike" />
      </cc:License>
    </rdf:RDF>
  </metadata>
  <g
     inkscape:label="Layer 1"
     inkscape:groupmode="layer"
     id="layer1"
     transform="translate(0,-752.55908)">
    <path
       style="fill:#ffffff;stroke:none;stroke-width:0.26458332"
       d="m 127.53516,752.59033 c -49.467725,-0.46734 -97.290276,30.91961 -116.727095,76.46755 -20.890313,46.1337 -10.71548167,104.09074 24.916129,140.17813 34.416369,36.77079 91.367276,49.38259 138.179036,30.85359 47.55846,-17.71657 81.60682,-65.81856 82.05644,-116.67839 1.72929,-49.37971 -28.27368,-97.79049 -73.06902,-118.48494 -17.25579,-8.21868 -36.26065,-12.39751 -55.35549,-12.33594 z"
       id="path2388"
       inkscape:connector-curvature="0" />
    <path
       style="color:#000000;font-style:normal;font-variant:normal;font-weight:normal;font-stretch:normal;font-size:medium;line-height:normal;font-family:sans-serif;font-variant-ligatures:normal;font-variant-position:normal;font-variant-caps:normal;font-variant-numeric:normal;font-variant-alternates:normal;font-feature-settings:normal;text-indent:0;text-align:start;text-decoration:none;text-decoration-line:none;text-decoration-style:solid;text-decoration-color:#000000;letter-spacing:normal;word-spacing:normal;text-transform:none;writing-mode:lr-tb;direction:ltr;text-orientation:mixed;dominant-baseline:auto;baseline-shift:baseline;text-anchor:start;white-space:normal;shape-padding:0;clip-rule:nonzero;display:inline;overflow:visible;visibility:visible;opacity:1;isolation:auto;mix-blend-mode:normal;color-interpolation:sRGB;color-interpolation-filters:linearRGB;solid-color:#000000;solid-opacity:1;vector-effect:none;fill:#ff00ff;fill-opacity:1;fill-rule:nonzero;stroke:none;stroke-width:1.58749998;stroke-linecap:round;stroke-linejoin:round;stroke-miterlimit:4;stroke-dasharray:none;stroke-dashoffset:0;stroke-opacity:1;color-rendering:auto;image-rendering:auto;shape-rendering:auto;text-rendering:auto;enable-background:accumulate"
       d="m 128.02825,753.94345 c -3.15127,0 -6.27455,0.11941 -9.36774,0.34507 2.96068,0.30967 6.09178,0.81791 9.36238,1.51167 3.25724,-0.69153 6.37239,-1.20255 9.31948,-1.51525 -3.07571,-0.22309 -6.18102,-0.34149 -9.31412,-0.34149 z"
       id="path1673"
       inkscape:connector-curvature="0" />
    <path
       style="color:#000000;font-style:normal;font-variant:normal;font-weight:normal;font-stretch:normal;font-size:medium;line-height:normal;font-family:sans-serif;font-variant-ligatures:normal;font-variant-position:normal;font-variant-caps:normal;font-variant-numeric:normal;font-variant-alternates:normal;font-feature-settings:normal;text-indent:0;text-align:start;text-decoration:none;text-decoration-line:none;text-decoration-style:solid;text-decoration-color:#000000;letter-spacing:normal;word-spacing:normal;text-transform:none;writing-mode:lr-tb;direction:ltr;text-orientation:mixed;dominant-baseline:auto;baseline-shift:baseline;text-anchor:start;white-space:normal;shape-padding:0;clip-rule:nonzero;display:inline;overflow:visible;visibility:visible;opacity:1;isolation:auto;mix-blend-mode:normal;color-interpolation:sRGB;color-interpolation-filters:linearRGB;solid-color:#000000;solid-opacity:1;vector-effect:none;fill:#ff00ff;fill-opacity:1;fill-rule:nonzero;stroke:none;stroke-width:1.58749998;stroke-linecap:round;stroke-linejoin:round;stroke-miterlimit:4;stroke-dasharray:none;stroke-dashoffset:0;stroke-opacity:1;color-rendering:auto;image-rendering:auto;shape-rendering:auto;text-rendering:auto;enable-background:accumulate"
       d="m 158.06603,757.52911 c 0.97223,0.68719 1.83872,1.47882 2.57369,2.38953 1.70236,2.10943 2.63034,4.8297 2.78288,8.00895 1.02877,0.46598 2.05642,0.9386 3.08146,1.41959 7.12932,-1.46165 14.74621,0.91373 22.31222,5.81607 7.7163,4.99973 15.46048,12.63761 22.82891,21.80713 9.16952,7.36843 16.8074,15.1135 21.80714,22.82982 4.90238,7.56606 7.27778,15.18283 5.81607,22.31221 0.48093,1.02495 0.95363,2.05188 1.41959,3.08057 3.17925,0.15253 5.89951,1.08051 8.00895,2.78288 0.91059,0.73487 1.7015,1.60162 2.38864,2.57369 -11.13245,-45.84497 -47.17455,-81.88807 -93.01955,-93.02044 z"
       id="path1667"
       inkscape:connector-curvature="0" />
    <path
       style="color:#000000;font-style:normal;font-variant:normal;font-weight:normal;font-stretch:normal;font-size:medium;line-height:normal;font-family:sans-serif;font-variant-ligatures:normal;font-variant-position:normal;font-variant-caps:normal;font-variant-numeric:normal;font-variant-alternates:normal;font-feature-settings:normal;text-indent:0;text-align:start;text-decoration:none;text-decoration-line:none;text-decoration-style:solid;text-decoration-color:#000000;letter-spacing:normal;word-spacing:normal;text-transform:none;writing-mode:lr-tb;direction:ltr;text-orientation:mixed;dominant-baseline:auto;baseline-shift:baseline;text-anchor:start;white-space:normal;shape-padding:0;clip-rule:nonzero;display:inline;overflow:visible;visibility:visible;opacity:1;isolation:auto;mix-blend-mode:normal;color-interpolation:sRGB;color-interpolation-filters:linearRGB;solid-color:#000000;solid-opacity:1;vector-effect:none;fill:#ff00ff;fill-opacity:1;fill-rule:nonzero;stroke:none;stroke-width:1.58749998;stroke-linecap:round;stroke-linejoin:round;stroke-miterlimit:4;stroke-dasharray:none;stroke-dashoffset:0;stroke-opacity:1;color-rendering:auto;image-rendering:auto;shape-rendering:auto;text-rendering:auto;enable-background:accumulate"
       d="m 97.961879,757.53715 c -45.82742,11.13956 -81.8549,47.17094 -92.9882666,93.00078 0.6858706,-0.96882 1.4749674,-1.83204 2.3832825,-2.56476 2.1098359,-1.70194 4.8313301,-2.62871 8.0116231,-2.78019 0.465966,-1.02869 0.938624,-2.0556 1.419599,-3.08057 -1.46174,-7.12939 0.913697,-14.74616 5.816068,-22.31221 4.99679,-7.71178 12.629553,-15.45184 21.791933,-22.81641 7.367994,-9.1713 15.112711,-16.8114 22.829815,-21.81338 7.570762,-4.90713 15.192558,-7.2851 22.325621,-5.82323 1.03125,-0.48474 2.063663,-0.96284 3.101128,-1.4339 0.233027,-4.5255 2.109255,-8.09343 5.309197,-10.37613 z"
       id="path1665"
       inkscape:connector-curvature="0" />
    <path
       style="color:#000000;font-style:normal;font-variant:normal;font-weight:normal;font-stretch:normal;font-size:medium;line-height:normal;font-family:sans-serif;font-variant-ligatures:normal;font-variant-position:normal;font-variant-caps:normal;font-variant-numeric:normal;font-variant-alternates:normal;font-feature-settings:normal;text-indent:0;text-align:start;text-decoration:none;text-decoration-line:none;text-decoration-style:solid;text-decoration-color:#000000;letter-spacing:normal;word-spacing:normal;text-transform:none;writing-mode:lr-tb;direction:ltr;text-orientation:mixed;dominant-baseline:auto;baseline-shift:baseline;text-anchor:start;white-space:normal;shape-padding:0;clip-rule:nonzero;display:inline;overflow:visible;visibility:visible;opacity:1;isolation:auto;mix-blend-mode:normal;color-interpolation:sRGB;color-interpolation-filters:linearRGB;solid-color:#000000;solid-opacity:1;vector-effect:none;fill:#aeceff;fill-opacity:1;fill-rule:nonzero;stroke:none;stroke-width:1.58749998;stroke-linecap:round;stroke-linejoin:round;stroke-miterlimit:4;stroke-dasharray:none;stroke-dashoffset:0;stroke-opacity:1;color-rendering:auto;image-rendering:auto;shape-rendering:auto;text-rendering:auto;enable-background:accumulate"
       d="m 127.30594,758.4472 c -0.58598,0.0609 -1.11174,0.0571 -1.78702,0.21901 -9.37976,2.24942 -19.88051,6.30806 -30.505305,11.01263 a 1.3732516,1.3732516 0 0 1 -0.03753,0.0438 c 0.05157,0.79941 0.897646,2.2206 1.03699,3.09309 1.220429,0.75434 2.494203,1.25313 3.645545,2.29925 4.44011,4.03522 8.34687,10.24717 11.60174,19.001 1.1431,3.07299 1.71083,8.33383 2.68723,12.05409 3.97589,5.3657 8.51888,11.06862 14.04581,17.46609 5.52883,-6.39895 10.07486,-12.1038 14.05118,-17.47056 0.97612,-3.71917 1.54462,-8.979 2.68723,-12.0514 3.25484,-8.75374 7.16476,-14.96046 11.60532,-18.99565 1.14891,-1.04403 2.425,-1.5431 3.64287,-2.29656 0.1416,-0.8837 1.00995,-2.32941 1.04592,-3.12616 -10.63975,-4.71278 -21.15927,-8.77437 -30.55179,-11.02693 -0.662,-0.15863 -1.1827,-0.16087 -1.75304,-0.21634 -0.13537,0.0286 -0.26817,0.0539 -0.40407,0.0831 a 1.3732516,1.3732516 0 0 1 -0.5775,0 c -0.14599,-0.0314 -0.28818,-0.0579 -0.43357,-0.0885 z"
       id="path1663"
       inkscape:connector-curvature="0" />
    <path
       style="color:#000000;font-style:normal;font-variant:normal;font-weight:normal;font-stretch:normal;font-size:medium;line-height:normal;font-family:sans-serif;font-variant-ligatures:normal;font-variant-position:normal;font-variant-caps:normal;font-variant-numeric:normal;font-variant-alternates:normal;font-feature-settings:normal;text-indent:0;text-align:start;text-decoration:none;text-decoration-line:none;text-decoration-style:solid;text-decoration-color:#000000;letter-spacing:normal;word-spacing:normal;text-transform:none;writing-mode:lr-tb;direction:ltr;text-orientation:mixed;dominant-baseline:auto;baseline-shift:baseline;text-anchor:start;white-space:normal;shape-padding:0;clip-rule:nonzero;display:inline;overflow:visible;visibility:visible;opacity:1;isolation:auto;mix-blend-mode:normal;color-interpolation:sRGB;color-interpolation-filters:linearRGB;solid-color:#000000;solid-opacity:1;vector-effect:none;fill:#bfedd2;fill-opacity:1;fill-rule:nonzero;stroke:none;stroke-width:1.58749998;stroke-linecap:round;stroke-linejoin:round;stroke-miterlimit:4;stroke-dasharray:none;stroke-dashoffset:0;stroke-opacity:1;color-rendering:auto;image-rendering:auto;shape-rendering:auto;text-rendering:auto;enable-background:accumulate"
       d="m 165.84879,772.06212 c -0.60494,0.11877 -1.23445,0.0928 -1.82098,0.32004 -0.89307,0.34609 -1.71441,1.13046 -2.58174,1.63326 -0.81095,4.26127 -1.61954,8.50614 -4.77104,14.35959 -2.76892,5.14344 -8.12113,12.03291 -12.93195,18.55313 -2.08852,8.03286 -3.97291,16.78066 -5.18493,28.20785 5.60897,6.08948 9.75737,11.23688 16.69102,18.17052 6.93937,6.93934 12.08825,11.09256 18.18215,16.70533 11.41199,-1.21077 20.14655,-3.09913 28.17298,-5.18404 6.53135,-4.82072 13.42642,-10.17946 18.57727,-12.95251 5.84841,-3.14861 10.09729,-3.94499 14.35602,-4.75673 0.85259,-1.46945 1.55948,-2.96618 1.97296,-4.50911 a 1.3732516,1.3732516 0 0 1 -0.0313,-0.19667 c 0,0 0,-9.2e-4 0,-9.2e-4 -1.71092,-3.64407 -3.15071,-7.27886 -5.07409,-10.883 -6.3844,-11.96034 -13.93475,-22.90032 -21.75081,-32.61862 -9.71966,-7.81756 -20.65638,-15.37805 -32.61951,-21.76332 -3.55801,-1.89927 -7.14937,-3.3253 -10.74712,-5.00794 a 1.3732516,1.3732516 0 0 1 -0.43894,-0.0769 z"
       id="path1653"
       inkscape:connector-curvature="0" />
    <path
       style="color:#000000;font-style:normal;font-variant:normal;font-weight:normal;font-stretch:normal;font-size:medium;line-height:normal;font-family:sans-serif;font-variant-ligatures:normal;font-variant-position:normal;font-variant-caps:normal;font-variant-numeric:normal;font-variant-alternates:normal;font-feature-settings:normal;text-indent:0;text-align:start;text-decoration:none;text-decoration-line:none;text-decoration-style:solid;text-decoration-color:#000000;letter-spacing:normal;word-spacing:normal;text-transform:none;writing-mode:lr-tb;direction:ltr;text-orientation:mixed;dominant-baseline:auto;baseline-shift:baseline;text-anchor:start;white-space:normal;shape-padding:0;clip-rule:nonzero;display:inline;overflow:visible;visibility:visible;opacity:1;isolation:auto;mix-blend-mode:normal;color-interpolation:sRGB;color-interpolation-filters:linearRGB;solid-color:#000000;solid-opacity:1;vector-effect:none;fill:#bcbcff;fill-opacity:1;fill-rule:nonzero;stroke:none;stroke-width:1.58749998;stroke-linecap:round;stroke-linejoin:round;stroke-miterlimit:4;stroke-dasharray:none;stroke-dashoffset:0;stroke-opacity:1;color-rendering:auto;image-rendering:auto;shape-rendering:auto;text-rendering:auto;enable-background:accumulate"
       d="m 90.160338,772.07643 a 1.3732516,1.3732516 0 0 1 -0.455023,0.0626 c -3.59684,1.6817 -7.183923,3.11074 -10.741758,5.00972 -11.936991,6.37147 -22.855886,13.91019 -32.559616,21.70968 a 1.3732516,1.3732516 0 0 1 -0.121576,0.12248 c -7.794255,9.70006 -15.320518,20.61426 -21.688235,32.54442 -1.90056,3.56118 -3.331075,7.15786 -5.015085,10.75874 a 1.3732516,1.3732516 0 0 1 -0.0599,0.42999 c 0.415902,1.50487 1.101809,2.96766 1.933624,4.40273 4.261066,0.81062 8.505285,1.61096 14.357805,4.7621 5.142565,2.76844 12.034605,8.12171 18.553131,12.93105 8.031465,2.08826 16.776194,3.98597 28.200697,5.19834 6.092847,-5.61225 11.238602,-9.76508 18.176788,-16.70354 6.93949,-6.93938 11.09261,-12.08843 16.70532,-18.18214 -1.21058,-11.41062 -3.09917,-20.14766 -5.18404,-28.17298 -4.81777,-6.52825 -10.17687,-13.41973 -12.948934,-18.56833 -3.150803,-5.85208 -3.949397,-10.10531 -4.760308,-14.36585 -1.432607,-0.83099 -2.890754,-1.52184 -4.392895,-1.93899 z"
       id="path1651"
       inkscape:connector-curvature="0" />
    <path
       style="color:#000000;font-style:normal;font-variant:normal;font-weight:normal;font-stretch:normal;font-size:medium;line-height:normal;font-family:sans-serif;font-variant-ligatures:normal;font-variant-position:normal;font-variant-caps:normal;font-variant-numeric:normal;font-variant-alternates:normal;font-feature-settings:normal;text-indent:0;text-align:start;text-decoration:none;text-decoration-line:none;text-decoration-style:solid;text-decoration-color:#000000;letter-spacing:normal;word-spacing:normal;text-transform:none;writing-mode:lr-tb;direction:ltr;text-orientation:mixed;dominant-baseline:auto;baseline-shift:baseline;text-anchor:start;white-space:normal;shape-padding:0;clip-rule:nonzero;display:inline;overflow:visible;visibility:visible;opacity:1;isolation:auto;mix-blend-mode:normal;color-interpolation:sRGB;color-interpolation-filters:linearRGB;solid-color:#000000;solid-opacity:1;vector-effect:none;fill:#deebff;fill-opacity:1;fill-rule:nonzero;stroke:none;stroke-width:1.58749998;stroke-linecap:round;stroke-linejoin:round;stroke-miterlimit:4;stroke-dasharray:none;stroke-dashoffset:0;stroke-opacity:1;color-rendering:auto;image-rendering:auto;shape-rendering:auto;text-rendering:auto;enable-background:accumulate"
       d="m 128.00054,827.78411 c -2.45138,2.77619 -5.01281,5.62584 -7.75684,8.59001 1.01866,10.40978 1.63214,22.2494 1.82188,35.56866 1.95299,0.019 3.91731,0.034 5.93407,0.034 2.01562,0 3.97191,-0.0151 5.92066,-0.034 0.19065,-13.32045 0.81622,-25.16065 1.83529,-35.56956 -2.74254,-2.96257 -5.30437,-5.81384 -7.75506,-8.58911 z"
       id="path1637"
       inkscape:connector-curvature="0" />
    <path
       style="color:#000000;font-style:normal;font-variant:normal;font-weight:normal;font-stretch:normal;font-size:medium;line-height:normal;font-family:sans-serif;font-variant-ligatures:normal;font-variant-position:normal;font-variant-caps:normal;font-variant-numeric:normal;font-variant-alternates:normal;font-feature-settings:normal;text-indent:0;text-align:start;text-decoration:none;text-decoration-line:none;text-decoration-style:solid;text-decoration-color:#000000;letter-spacing:normal;word-spacing:normal;text-transform:none;writing-mode:lr-tb;direction:ltr;text-orientation:mixed;dominant-baseline:auto;baseline-shift:baseline;text-anchor:start;white-space:normal;shape-padding:0;clip-rule:nonzero;display:inline;overflow:visible;visibility:visible;opacity:1;isolation:auto;mix-blend-mode:normal;color-interpolation:sRGB;color-interpolation-filters:linearRGB;solid-color:#000000;solid-opacity:1;vector-effect:none;fill:#d0edbd;fill-opacity:1;fill-rule:nonzero;stroke:none;stroke-width:1.58749998;stroke-linecap:round;stroke-linejoin:round;stroke-miterlimit:4;stroke-dasharray:none;stroke-dashoffset:0;stroke-opacity:1;color-rendering:auto;image-rendering:auto;shape-rendering:auto;text-rendering:auto;enable-background:accumulate"
       d="m 238.86611,847.53424 c -0.79386,0.0357 -2.23855,0.89969 -3.119,1.04057 -0.75423,1.22026 -1.25207,2.49518 -2.29836,3.64644 -4.03534,4.44042 -10.24768,8.34571 -19.0019,11.60085 -3.07551,1.14361 -8.34003,1.71372 -12.06392,2.6908 -5.36578,3.97571 -11.0685,8.51855 -17.46608,14.04582 6.39408,5.52431 12.09542,10.0687 17.45893,14.04313 3.72503,0.97728 8.98669,1.5504 12.06302,2.69438 8.75392,3.25499 14.97081,7.16237 19.00637,11.60264 1.04507,1.15022 1.54276,2.42366 2.29657,3.64286 0.88326,0.14145 2.32993,1.01018 3.12616,1.04593 4.71168,-10.63777 8.77369,-21.15986 11.02604,-30.5509 0.17421,-0.7269 0.15622,-1.28332 0.23422,-1.92647 -0.0167,-0.0786 -0.0314,-0.15544 -0.0483,-0.23422 a 1.3732516,1.3732516 0 0 1 0,-0.5775 c 0.017,-0.0791 0.0315,-0.15622 0.0483,-0.23511 -0.0809,-0.66144 -0.0614,-1.23286 -0.24048,-1.97921 -2.25192,-9.39205 -6.30934,-19.91115 -11.02157,-30.55001 z"
       id="path1627"
       inkscape:connector-curvature="0" />
    <path
       style="color:#000000;font-style:normal;font-variant:normal;font-weight:normal;font-stretch:normal;font-size:medium;line-height:normal;font-family:sans-serif;font-variant-ligatures:normal;font-variant-position:normal;font-variant-caps:normal;font-variant-numeric:normal;font-variant-alternates:normal;font-feature-settings:normal;text-indent:0;text-align:start;text-decoration:none;text-decoration-line:none;text-decoration-style:solid;text-decoration-color:#000000;letter-spacing:normal;word-spacing:normal;text-transform:none;writing-mode:lr-tb;direction:ltr;text-orientation:mixed;dominant-baseline:auto;baseline-shift:baseline;text-anchor:start;white-space:normal;shape-padding:0;clip-rule:nonzero;display:inline;overflow:visible;visibility:visible;opacity:1;isolation:auto;mix-blend-mode:normal;color-interpolation:sRGB;color-interpolation-filters:linearRGB;solid-color:#000000;solid-opacity:1;vector-effect:none;fill:#e08fb0;fill-opacity:1;fill-rule:nonzero;stroke:none;stroke-width:1.58749998;stroke-linecap:round;stroke-linejoin:round;stroke-miterlimit:4;stroke-dasharray:none;stroke-dashoffset:0;stroke-opacity:1;color-rendering:auto;image-rendering:auto;shape-rendering:auto;text-rendering:auto;enable-background:accumulate"
       d="m 17.178777,847.53514 a 1.3732516,1.3732516 0 0 1 -0.07956,0.0644 c -4.700317,10.61695 -8.747626,21.10719 -10.995643,30.48028 -0.1624348,0.67748 -0.1556653,1.20633 -0.2145491,1.79417 0.02998,0.14226 0.056893,0.28177 0.087609,0.42462 a 1.3732516,1.3732516 0 0 1 0,0.5775 c -0.029613,0.13771 -0.055112,0.27226 -0.084035,0.40943 0.054604,0.57312 0.051899,1.09492 0.2109744,1.75841 2.2524568,9.39206 6.3182247,19.90828 11.0305067,30.54732 0.794369,-0.0358 2.238963,-0.89955 3.119903,-1.04056 0.754984,-1.22134 1.249058,-2.50339 2.295673,-3.65538 4.03534,-4.44043 10.250848,-8.33689 19.004584,-11.59191 3.070256,-1.14169 8.327366,-1.70964 12.044249,-2.68544 5.368557,-3.97711 11.07186,-8.52673 17.473237,-14.05744 -6.399596,-5.52926 -12.104195,-10.07451 -17.471447,-14.05117 -3.718998,-0.97628 -8.979151,-1.54478 -12.051403,-2.68723 -8.753924,-3.25499 -14.957893,-7.1551 -18.992963,-11.59549 -1.046428,-1.15137 -1.544571,-2.43225 -2.299248,-3.6527 -0.866998,-0.13892 -2.272751,-0.97416 -3.077886,-1.03877 z"
       id="path1625"
       inkscape:connector-curvature="0" />
    <path
       style="color:#000000;font-style:normal;font-variant:normal;font-weight:normal;font-stretch:normal;font-size:medium;line-height:normal;font-family:sans-serif;font-variant-ligatures:normal;font-variant-position:normal;font-variant-caps:normal;font-variant-numeric:normal;font-variant-alternates:normal;font-feature-settings:normal;text-indent:0;text-align:start;text-decoration:none;text-decoration-line:none;text-decoration-style:solid;text-decoration-color:#000000;letter-spacing:normal;word-spacing:normal;text-transform:none;writing-mode:lr-tb;direction:ltr;text-orientation:mixed;dominant-baseline:auto;baseline-shift:baseline;text-anchor:start;white-space:normal;shape-padding:0;clip-rule:nonzero;display:inline;overflow:visible;visibility:visible;opacity:1;isolation:auto;mix-blend-mode:normal;color-interpolation:sRGB;color-interpolation-filters:linearRGB;solid-color:#000000;solid-opacity:1;vector-effect:none;fill:#ff00ff;fill-opacity:1;fill-rule:nonzero;stroke:none;stroke-width:1.58749998;stroke-linecap:round;stroke-linejoin:round;stroke-miterlimit:4;stroke-dasharray:none;stroke-dashoffset:0;stroke-opacity:1;color-rendering:auto;image-rendering:auto;shape-rendering:auto;text-rendering:auto;enable-background:accumulate"
       d="m 254.33064,871.27678 c -0.31248,2.94439 -0.82281,6.05663 -1.51347,9.31054 0.69065,3.25387 1.201,6.36645 1.51347,9.31143 0.22296,-3.07484 0.34148,-6.17924 0.34148,-9.31143 0,-3.13189 -0.11856,-6.23598 -0.34148,-9.31054 z"
       id="path1611"
       inkscape:connector-curvature="0" />
    <path
       style="color:#000000;font-style:normal;font-variant:normal;font-weight:normal;font-stretch:normal;font-size:medium;line-height:normal;font-family:sans-serif;font-variant-ligatures:normal;font-variant-position:normal;font-variant-caps:normal;font-variant-numeric:normal;font-variant-alternates:normal;font-feature-settings:normal;text-indent:0;text-align:start;text-decoration:none;text-decoration-line:none;text-decoration-style:solid;text-decoration-color:#000000;letter-spacing:normal;word-spacing:normal;text-transform:none;writing-mode:lr-tb;direction:ltr;text-orientation:mixed;dominant-baseline:auto;baseline-shift:baseline;text-anchor:start;white-space:normal;shape-padding:0;clip-rule:nonzero;display:inline;overflow:visible;visibility:visible;opacity:1;isolation:auto;mix-blend-mode:normal;color-interpolation:sRGB;color-interpolation-filters:linearRGB;solid-color:#000000;solid-opacity:1;vector-effect:none;fill:#ff00ff;fill-opacity:1;fill-rule:nonzero;stroke:none;stroke-width:1.58749998;stroke-linecap:round;stroke-linejoin:round;stroke-miterlimit:4;stroke-dasharray:none;stroke-dashoffset:0;stroke-opacity:1;color-rendering:auto;image-rendering:auto;shape-rendering:auto;text-rendering:auto;enable-background:accumulate"
       d="m 1.7258767,871.27768 c -0.2228748,3.07426 -0.3414936,6.17805 -0.3414936,9.30964 4.6e-6,3.1325 0.1184906,6.23719 0.3414936,9.31233 0.3127908,-2.94516 0.8227563,-6.05821 1.5134649,-9.31233 -0.6906125,-3.25364 -1.2006466,-6.3655 -1.5134649,-9.30964 z"
       id="path1609"
       inkscape:connector-curvature="0" />
    <path
       style="color:#000000;font-style:normal;font-variant:normal;font-weight:normal;font-stretch:normal;font-size:medium;line-height:normal;font-family:sans-serif;font-variant-ligatures:normal;font-variant-position:normal;font-variant-caps:normal;font-variant-numeric:normal;font-variant-alternates:normal;font-feature-settings:normal;text-indent:0;text-align:start;text-decoration:none;text-decoration-line:none;text-decoration-style:solid;text-decoration-color:#000000;letter-spacing:normal;word-spacing:normal;text-transform:none;writing-mode:lr-tb;direction:ltr;text-orientation:mixed;dominant-baseline:auto;baseline-shift:baseline;text-anchor:start;white-space:normal;shape-padding:0;clip-rule:nonzero;display:inline;overflow:visible;visibility:visible;opacity:1;isolation:auto;mix-blend-mode:normal;color-interpolation:sRGB;color-interpolation-filters:linearRGB;solid-color:#000000;solid-opacity:1;vector-effect:none;fill:#f6dbe6;fill-opacity:1;fill-rule:nonzero;stroke:none;stroke-width:1.58749998;stroke-linecap:round;stroke-linejoin:round;stroke-miterlimit:4;stroke-dasharray:none;stroke-dashoffset:0;stroke-opacity:1;color-rendering:auto;image-rendering:auto;shape-rendering:auto;text-rendering:auto;enable-background:accumulate"
       d="m 83.800745,872.80366 c -2.960159,2.74126 -5.803696,5.30443 -8.577497,7.75595 2.774268,2.45188 5.616221,5.01364 8.577497,7.75595 10.412857,-1.01944 22.245975,-1.63214 35.570455,-1.82188 0.0224,-1.95593 0.0465,-3.92251 0.0465,-5.93496 0,-2.01095 -0.0241,-3.96844 -0.0465,-5.91977 -13.32531,-0.19064 -25.158632,-0.81549 -35.570455,-1.83529 z"
       id="path1607"
       inkscape:connector-curvature="0" />
    <path
       style="color:#000000;font-style:normal;font-variant:normal;font-weight:normal;font-stretch:normal;font-size:medium;line-height:normal;font-family:sans-serif;font-variant-ligatures:normal;font-variant-position:normal;font-variant-caps:normal;font-variant-numeric:normal;font-variant-alternates:normal;font-feature-settings:normal;text-indent:0;text-align:start;text-decoration:none;text-decoration-line:none;text-decoration-style:solid;text-decoration-color:#000000;letter-spacing:normal;word-spacing:normal;text-transform:none;writing-mode:lr-tb;direction:ltr;text-orientation:mixed;dominant-baseline:auto;baseline-shift:baseline;text-anchor:start;white-space:normal;shape-padding:0;clip-rule:nonzero;display:inline;overflow:visible;visibility:visible;opacity:1;isolation:auto;mix-blend-mode:normal;color-interpolation:sRGB;color-interpolation-filters:linearRGB;solid-color:#000000;solid-opacity:1;vector-effect:none;fill:#eaf7e2;fill-opacity:1;fill-rule:nonzero;stroke:none;stroke-width:1.58749998;stroke-linecap:round;stroke-linejoin:round;stroke-miterlimit:4;stroke-dasharray:none;stroke-dashoffset:0;stroke-opacity:1;color-rendering:auto;image-rendering:auto;shape-rendering:auto;text-rendering:auto;enable-background:accumulate"
       d="m 172.18604,872.80366 c -10.40893,1.01908 -22.24912,1.64464 -35.56956,1.83529 -0.0189,1.94852 -0.0349,3.90452 -0.0349,5.91977 0,2.01689 0.0158,3.98204 0.0349,5.93496 13.31925,0.18975 25.15886,0.80321 35.56866,1.82188 2.96403,-2.74391 5.81397,-5.30465 8.59001,-7.75595 -2.77542,-2.45079 -5.62638,-5.01327 -8.58911,-7.75595 z"
       id="path1605"
       inkscape:connector-curvature="0" />
    <path
       style="color:#000000;font-style:normal;font-variant:normal;font-weight:normal;font-stretch:normal;font-size:medium;line-height:normal;font-family:sans-serif;font-variant-ligatures:normal;font-variant-position:normal;font-variant-caps:normal;font-variant-numeric:normal;font-variant-alternates:normal;font-feature-settings:normal;text-indent:0;text-align:start;text-decoration:none;text-decoration-line:none;text-decoration-style:solid;text-decoration-color:#000000;letter-spacing:normal;word-spacing:normal;text-transform:none;writing-mode:lr-tb;direction:ltr;text-orientation:mixed;dominant-baseline:auto;baseline-shift:baseline;text-anchor:start;white-space:normal;shape-padding:0;clip-rule:nonzero;display:inline;overflow:visible;visibility:visible;opacity:1;isolation:auto;mix-blend-mode:normal;color-interpolation:sRGB;color-interpolation-filters:linearRGB;solid-color:#000000;solid-opacity:1;vector-effect:none;fill:#ffe0cb;fill-opacity:1;fill-rule:nonzero;stroke:none;stroke-width:1.58749998;stroke-linecap:round;stroke-linejoin:round;stroke-miterlimit:4;stroke-dasharray:none;stroke-dashoffset:0;stroke-opacity:1;color-rendering:auto;image-rendering:auto;shape-rendering:auto;text-rendering:auto;enable-background:accumulate"
       d="m 127.99965,889.14068 c -2.01241,0 -3.97824,0.024 -5.93407,0.0465 -0.18972,13.32487 -0.80242,25.15825 -1.82188,35.57135 2.74244,2.96144 5.30485,5.80308 7.75684,8.5775 2.45142,-2.77366 5.01394,-5.61748 7.75506,-8.5775 -1.01982,-10.41203 -1.64557,-22.24563 -1.83618,-35.57135 -1.95127,-0.0225 -3.90875,-0.0465 -5.91977,-0.0465 z"
       id="path1593"
       inkscape:connector-curvature="0" />
    <path
       style="color:#000000;font-style:normal;font-variant:normal;font-weight:normal;font-stretch:normal;font-size:medium;line-height:normal;font-family:sans-serif;font-variant-ligatures:normal;font-variant-position:normal;font-variant-caps:normal;font-variant-numeric:normal;font-variant-alternates:normal;font-feature-settings:normal;text-indent:0;text-align:start;text-decoration:none;text-decoration-line:none;text-decoration-style:solid;text-decoration-color:#000000;letter-spacing:normal;word-spacing:normal;text-transform:none;writing-mode:lr-tb;direction:ltr;text-orientation:mixed;dominant-baseline:auto;baseline-shift:baseline;text-anchor:start;white-space:normal;shape-padding:0;clip-rule:nonzero;display:inline;overflow:visible;visibility:visible;opacity:1;isolation:auto;mix-blend-mode:normal;color-interpolation:sRGB;color-interpolation-filters:linearRGB;solid-color:#000000;solid-opacity:1;vector-effect:none;fill:#ffea9a;fill-opacity:1;fill-rule:nonzero;stroke:none;stroke-width:1.58749998;stroke-linecap:round;stroke-linejoin:round;stroke-miterlimit:4;stroke-dasharray:none;stroke-dashoffset:0;stroke-opacity:1;color-rendering:auto;image-rendering:auto;shape-rendering:auto;text-rendering:auto;enable-background:accumulate"
       d="m 173.42416,891.11006 c -6.09247,5.61166 -11.23936,9.76616 -18.17678,16.70355 -6.93531,6.93545 -11.08873,12.07972 -16.69907,18.17052 1.21228,11.42865 3.10608,20.17678 5.19477,28.21052 4.81099,6.52053 10.16547,13.40858 12.93463,18.55224 3.15082,5.85214 3.95834,10.10261 4.76925,14.36317 1.47449,0.85396 2.97657,1.55637 4.5252,1.9676 a 1.3732516,1.3732516 0 0 1 0.16628,-0.0313 c 3.6479,-1.71306 7.28836,-3.15361 10.89641,-5.07945 11.95888,-6.38318 22.89086,-13.93245 32.60878,-21.74724 7.8185,-9.72032 15.37729,-20.65527 21.76333,-32.6195 1.92684,-3.60993 3.36633,-7.25344 5.08034,-10.90357 a 1.3732516,1.3732516 0 0 1 0.0295,-0.16359 c -0.41155,-1.54847 -1.11406,-3.05081 -1.96849,-4.5252 -4.26151,-0.81036 -8.51607,-1.61664 -14.37032,-4.76836 -5.14627,-2.77053 -12.0312,-8.12643 -18.55581,-12.94088 -8.0307,-2.08738 -16.77576,-3.97668 -28.19802,-5.18851 z"
       id="path1587"
       inkscape:connector-curvature="0" />
    <path
       style="color:#000000;font-style:normal;font-variant:normal;font-weight:normal;font-stretch:normal;font-size:medium;line-height:normal;font-family:sans-serif;font-variant-ligatures:normal;font-variant-position:normal;font-variant-caps:normal;font-variant-numeric:normal;font-variant-alternates:normal;font-feature-settings:normal;text-indent:0;text-align:start;text-decoration:none;text-decoration-line:none;text-decoration-style:solid;text-decoration-color:#000000;letter-spacing:normal;word-spacing:normal;text-transform:none;writing-mode:lr-tb;direction:ltr;text-orientation:mixed;dominant-baseline:auto;baseline-shift:baseline;text-anchor:start;white-space:normal;shape-padding:0;clip-rule:nonzero;display:inline;overflow:visible;visibility:visible;opacity:1;isolation:auto;mix-blend-mode:normal;color-interpolation:sRGB;color-interpolation-filters:linearRGB;solid-color:#000000;solid-opacity:1;vector-effect:none;fill:#ff9090;fill-opacity:1;fill-rule:nonzero;stroke:none;stroke-width:1.58749998;stroke-linecap:round;stroke-linejoin:round;stroke-miterlimit:4;stroke-dasharray:none;stroke-dashoffset:0;stroke-opacity:1;color-rendering:auto;image-rendering:auto;shape-rendering:auto;text-rendering:auto;enable-background:accumulate"
       d="m 82.559935,891.11632 c -11.41853,1.2118 -20.163231,3.10253 -28.191753,5.18941 -6.520796,4.81119 -13.408731,10.16546 -18.552239,12.93462 -5.8562,3.15278 -10.109746,3.96203 -14.372108,4.77194 -0.832075,1.43655 -1.523773,2.89908 -1.938989,4.40541 a 1.3732516,1.3732516 0 0 1 0.07509,0.4425 c 1.680235,3.59578 3.108891,7.18262 5.007039,10.73908 6.386821,11.96544 13.943042,22.90482 21.762434,32.62577 9.716472,7.81349 20.656166,15.36136 32.613254,21.74365 3.602105,1.92275 7.237997,3.36126 10.88032,5.07052 a 1.3732516,1.3732516 0 0 1 0.217231,0.0313 c 1.536776,-0.41285 3.030884,-1.11201 4.494803,-1.96044 0.810421,-4.26128 1.607075,-8.51308 4.758523,-14.36675 2.77006,-5.14505 8.12897,-12.03323 12.94178,-18.55581 2.08705,-8.03054 3.97626,-16.77707 5.18762,-28.19891 -5.61131,-6.09232 -9.76626,-11.23935 -16.70354,-18.17678 -6.936671,-6.93707 -12.087521,-11.08414 -18.179466,-16.69549 z"
       id="path1585"
       inkscape:connector-curvature="0" />
    <path
       style="color:#000000;font-style:normal;font-variant:normal;font-weight:normal;font-stretch:normal;font-size:medium;line-height:normal;font-family:sans-serif;font-variant-ligatures:normal;font-variant-position:normal;font-variant-caps:normal;font-variant-numeric:normal;font-variant-alternates:normal;font-feature-settings:normal;text-indent:0;text-align:start;text-decoration:none;text-decoration-line:none;text-decoration-style:solid;text-decoration-color:#000000;letter-spacing:normal;word-spacing:normal;text-transform:none;writing-mode:lr-tb;direction:ltr;text-orientation:mixed;dominant-baseline:auto;baseline-shift:baseline;text-anchor:start;white-space:normal;shape-padding:0;clip-rule:nonzero;display:inline;overflow:visible;visibility:visible;opacity:1;isolation:auto;mix-blend-mode:normal;color-interpolation:sRGB;color-interpolation-filters:linearRGB;solid-color:#000000;solid-opacity:1;vector-effect:none;fill:#ff00ff;fill-opacity:1;fill-rule:nonzero;stroke:none;stroke-width:1.58749998;stroke-linecap:round;stroke-linejoin:round;stroke-miterlimit:4;stroke-dasharray:none;stroke-dashoffset:0;stroke-opacity:1;color-rendering:auto;image-rendering:auto;shape-rendering:auto;text-rendering:auto;enable-background:accumulate"
       d="m 251.082,910.64208 c -0.68617,0.97017 -1.47638,1.8344 -2.38506,2.56833 -2.10984,1.70408 -4.83034,2.63406 -8.01074,2.78645 -0.46609,1.02586 -0.9384,2.04724 -1.4178,3.06717 1.46134,7.12911 -0.91389,14.74555 -5.81607,22.31131 -4.99666,7.71156 -12.62817,15.45116 -21.79015,22.81551 -0.007,0.009 -0.0259,0.0297 -0.0277,0.0322 0.043,-0.0346 0.0395,-0.0293 -0.003,0.004 4.6e-4,-4.6e-4 10e-4,-0.002 0.002,-0.003 l 9.2e-4,-9.1e-4 c 0.002,-0.003 0.0189,-0.0234 0.0241,-0.0295 -0.005,0.004 -0.009,0.007 -0.0134,0.0107 -0.008,0.01 -0.0155,0.019 -0.0232,0.0286 0.002,-0.002 0.007,-0.005 0.009,-0.006 -0.004,0.003 -0.007,0.007 -0.0116,0.01 -7.36064,9.15516 -15.09578,16.78112 -22.803,21.77495 -7.56629,4.90253 -15.18353,7.27898 -22.3131,5.81697 -1.02436,0.48066 -2.0516,0.95301 -3.07968,1.4187 -0.15142,3.18056 -1.07903,5.90165 -2.78109,8.01154 -0.73271,0.9083 -1.5961,1.6974 -2.56476,2.3833 45.83377,-11.13426 81.86812,-47.1668 93.00436,-92.99983 z"
       id="path1579"
       inkscape:connector-curvature="0" />
    <path
       style="color:#000000;font-style:normal;font-variant:normal;font-weight:normal;font-stretch:normal;font-size:medium;line-height:normal;font-family:sans-serif;font-variant-ligatures:normal;font-variant-position:normal;font-variant-caps:normal;font-variant-numeric:normal;font-variant-alternates:normal;font-feature-settings:normal;text-indent:0;text-align:start;text-decoration:none;text-decoration-line:none;text-decoration-style:solid;text-decoration-color:#000000;letter-spacing:normal;word-spacing:normal;text-transform:none;writing-mode:lr-tb;direction:ltr;text-orientation:mixed;dominant-baseline:auto;baseline-shift:baseline;text-anchor:start;white-space:normal;shape-padding:0;clip-rule:nonzero;display:inline;overflow:visible;visibility:visible;opacity:1;isolation:auto;mix-blend-mode:normal;color-interpolation:sRGB;color-interpolation-filters:linearRGB;solid-color:#000000;solid-opacity:1;vector-effect:none;fill:#ff00ff;fill-opacity:1;fill-rule:nonzero;stroke:none;stroke-width:1.58749998;stroke-linecap:round;stroke-linejoin:round;stroke-miterlimit:4;stroke-dasharray:none;stroke-dashoffset:0;stroke-opacity:1;color-rendering:auto;image-rendering:auto;shape-rendering:auto;text-rendering:auto;enable-background:accumulate"
       d="m 4.9771871,910.6528 c 11.1379569,45.82257 47.1630069,81.84763 92.9855849,92.9856 -0.967002,-0.6849 -1.828471,-1.4733 -2.560286,-2.3797 -1.703605,-2.11019 -2.632389,-4.83123 -2.783774,-8.01254 -1.025547,-0.46595 -2.046687,-0.93855 -3.066265,-1.4178 -7.129141,1.46134 -14.745573,-0.9148 -22.311318,-5.81697 -7.710783,-4.99614 -15.450017,-12.62756 -22.813722,-21.78835 -9.172637,-7.36872 -16.813543,-15.11545 -21.816068,-22.83339 -4.90709,-7.57071 -7.285035,-15.19171 -5.823222,-22.32473 -0.479524,-1.02016 -0.951582,-2.04195 -1.417809,-3.06806 -3.181296,-0.15138 -5.9032477,-1.08017 -8.0134131,-2.78377 C 6.450438,912.48128 5.662124,911.61981 4.9771871,910.6528 Z"
       id="path1577"
       inkscape:connector-curvature="0" />
    <path
       style="color:#000000;font-style:normal;font-variant:normal;font-weight:normal;font-stretch:normal;font-size:medium;line-height:normal;font-family:sans-serif;font-variant-ligatures:normal;font-variant-position:normal;font-variant-caps:normal;font-variant-numeric:normal;font-variant-alternates:normal;font-feature-settings:normal;text-indent:0;text-align:start;text-decoration:none;text-decoration-line:none;text-decoration-style:solid;text-decoration-color:#000000;letter-spacing:normal;word-spacing:normal;text-transform:none;writing-mode:lr-tb;direction:ltr;text-orientation:mixed;dominant-baseline:auto;baseline-shift:baseline;text-anchor:start;white-space:normal;shape-padding:0;clip-rule:nonzero;display:inline;overflow:visible;visibility:visible;opacity:1;isolation:auto;mix-blend-mode:normal;color-interpolation:sRGB;color-interpolation-filters:linearRGB;solid-color:#000000;solid-opacity:1;vector-effect:none;fill:#ffbb8e;fill-opacity:1;fill-rule:nonzero;stroke:none;stroke-width:1.58749998;stroke-linecap:round;stroke-linejoin:round;stroke-miterlimit:4;stroke-dasharray:none;stroke-dashoffset:0;stroke-opacity:1;color-rendering:auto;image-rendering:auto;shape-rendering:auto;text-rendering:auto;enable-background:accumulate"
       d="m 127.99518,937.48217 c -5.52915,6.39969 -10.07449,12.10321 -14.05118,17.47056 -0.97635,3.72027 -1.5443,8.97823 -2.68723,12.0514 -3.25484,8.75374 -7.15224,14.9676 -11.592801,19.00279 -1.151443,1.04634 -2.431973,1.54474 -3.652699,2.29925 -0.140694,0.87928 -1.002891,2.32051 -1.038775,3.11365 10.639755,4.71278 21.152125,8.78688 30.544645,11.03948 0.73392,0.176 1.29525,0.1559 1.94703,0.2369 0.0924,-0.02 0.18274,-0.036 0.27534,-0.056 a 1.3732516,1.3732516 0 0 1 0.57749,0 c 0.0746,0.016 0.14729,0.03 0.2217,0.046 0.64499,-0.075 1.20808,-0.059 1.94078,-0.2351 9.39188,-2.2523 19.91025,-6.30929 30.54911,-11.02155 -0.0358,-0.79664 -0.90186,-2.2452 -1.04324,-3.12884 -1.21928,-0.75395 -2.49549,-1.25396 -3.64555,-2.29925 -4.4406,-4.03508 -8.34418,-10.23734 -11.59906,-18.99117 -1.14193,-3.0706 -1.70996,-8.32832 -2.68544,-12.04515 -3.97877,-5.37059 -8.52657,-11.0776 -14.06012,-17.48217 z"
       id="path1563"
       inkscape:connector-curvature="0" />
    <path
       style="color:#000000;font-style:normal;font-variant:normal;font-weight:normal;font-stretch:normal;font-size:medium;line-height:normal;font-family:sans-serif;font-variant-ligatures:normal;font-variant-position:normal;font-variant-caps:normal;font-variant-numeric:normal;font-variant-alternates:normal;font-feature-settings:normal;text-indent:0;text-align:start;text-decoration:none;text-decoration-line:none;text-decoration-style:solid;text-decoration-color:#000000;letter-spacing:normal;word-spacing:normal;text-transform:none;writing-mode:lr-tb;direction:ltr;text-orientation:mixed;dominant-baseline:auto;baseline-shift:baseline;text-anchor:start;white-space:normal;shape-padding:0;clip-rule:nonzero;display:inline;overflow:visible;visibility:visible;opacity:1;isolation:auto;mix-blend-mode:normal;color-interpolation:sRGB;color-interpolation-filters:linearRGB;solid-color:#000000;solid-opacity:1;vector-effect:none;fill:#ff00ff;fill-opacity:1;fill-rule:nonzero;stroke:none;stroke-width:1.58749998;stroke-linecap:round;stroke-linejoin:round;stroke-miterlimit:4;stroke-dasharray:none;stroke-dashoffset:0;stroke-opacity:1;color-rendering:auto;image-rendering:auto;shape-rendering:auto;text-rendering:auto;enable-background:accumulate"
       d="m 128.02825,1005.3762 c -3.25411,0.6907 -6.36716,1.2007 -9.31232,1.5135 3.07514,0.223 6.17983,0.3415 9.31232,0.3415 3.13189,0 6.23599,-0.1186 9.31054,-0.3415 -2.94434,-0.3128 -6.0568,-0.8228 -9.31054,-1.5135 z"
       id="path1538"
       inkscape:connector-curvature="0" />
    <path
       style="fill:#ffdd55;stroke:none;stroke-width:0.26458332"
       d="m 252.28115,904.57428 c -1.70546,6.32487 -5.68822,10.09737 -12.52967,10.08381 -0.62371,1.3953 -1.27379,2.77933 -1.93096,4.17655 3.14168,13.56493 -8.8846,29.69134 -27.1619,44.35446 -0.005,0.005 -0.0101,0.009 -0.0142,0.0143 -0.005,0.004 -0.009,0.0102 -0.0142,0.0143 -14.66312,18.27738 -30.78948,30.30357 -44.35447,27.16191 -1.39765,0.65739 -2.79507,1.30705 -4.19084,1.93095 0.0165,7.05266 -3.9829,11.07364 -10.65596,12.68694 l 0.17164,1.3731 c 51.50826,-9.60351 92.15899,-50.03869 102.06816,-101.43875 l -1.38739,-0.35758 z"
       id="path3958"
       inkscape:connector-curvature="0" />
    <path
       style="fill:#87deaa;stroke:none;stroke-width:0.26458332"
       d="m 151.98659,754.819 -0.3576,1.35881 c 6.5498,1.64667 10.46958,5.65246 10.45571,12.62979 1.39577,0.62389 2.79319,1.27356 4.19084,1.93094 13.56495,-3.14164 29.69135,8.88461 44.35447,27.16192 0.006,0.004 0.009,0.0102 0.0142,0.0143 0.005,0.005 0.0101,0.009 0.0142,0.0143 18.2773,14.66311 30.30358,30.78953 27.1619,44.35445 0.6574,1.39769 1.30706,2.79511 1.93096,4.19086 6.61379,-0.0131 10.56117,3.50951 12.35803,9.45447 l 1.47321,-0.21455 C 243.53926,804.67069 203.15144,764.52223 151.98659,754.819 Z"
       id="path3966"
       inkscape:connector-curvature="0" />
    <path
       style="fill:#8080ff;stroke:none;stroke-width:0.26458332"
       d="M 102.75472,755.06215 C 51.986932,765.21638 12.071094,805.39463 2.3028044,856.30073 l 1.3731143,0.35758 C 5.3643,850.27212 9.3654178,846.45828 16.248519,846.47438 c 0.623898,-1.39576 1.273564,-2.79318 1.93092,-4.19086 -3.14164,-13.56496 8.884553,-29.69131 27.16194,-44.35445 14.669895,-18.29511 30.810305,-30.33399 44.383036,-27.19053 1.397236,-0.65717 2.781289,-1.30724 4.176556,-1.93094 -0.01282,-6.47037 3.354748,-10.3927 9.068279,-12.2436 z"
       id="path3964"
       inkscape:connector-curvature="0" />
    <path
       style="fill:#ff5555;stroke:none;stroke-width:0.26458332"
       d="m 3.9190972,905.33235 -1.4732601,0.20025 c 9.9753549,50.44305 49.5723099,90.22018 99.9226729,100.4519 l 0.40049,-1.4875 c -5.590267,-1.8767 -8.88295,-5.79188 -8.868029,-12.18644 -1.395267,-0.6237 -2.77932,-1.27377 -4.176556,-1.93094 -13.56495,3.14165 -29.691308,-8.88454 -44.35443,-27.16192 -18.2951,-14.66989 -30.333971,-30.81028 -27.190546,-44.38306 -0.657173,-1.39722 -1.307205,-2.78125 -1.93092,-4.17655 -6.5676053,0.0153 -10.5147139,-3.45686 -12.3294218,-9.32574 z"
       id="path3956"
       inkscape:connector-curvature="0" />
    <path
       style="fill:#5599ff;stroke:none;stroke-width:0.26458332"
       d="m 127.99998,752.55908 c -6.1917,0 -12.27981,0.45187 -18.23665,1.3016 l 0.11442,1.50184 c 0.88557,-0.0532 1.80336,-0.089 2.74623,-0.0858 4.54826,0.0156 9.75076,0.6785 15.376,1.88804 6.1613,-1.32479 11.80471,-1.99313 16.64901,-1.87373 l 0.31467,-1.61627 c -5.54967,-0.73475 -11.21317,-1.11566 -16.96368,-1.11566 z"
       id="path3968"
       inkscape:connector-curvature="0" />
    <path
       style="fill:#aade87;stroke:none;stroke-width:0.26458332"
       d="m 254.75564,862.7372 -1.5448,0.11443 c 0.25375,5.07445 -0.39367,11.09013 -1.81649,17.70745 1.36185,6.33366 2.0274,12.11375 1.85942,17.0495 l 1.57336,0.31468 C 255.59717,892.24522 256,886.44831 256,880.55908 c 0,-6.04811 -0.43294,-11.99723 -1.24436,-17.82188 z"
       id="path3962"
       inkscape:connector-curvature="0" />
    <path
       style="fill:#c83771;stroke:none;stroke-width:0.26458332"
       d="M 1.1585424,863.32364 C 0.39989679,868.96063 1.3207e-7,874.71426 1.3207e-7,880.55908 c 0,6.09738 0.43422451793,12.09488 1.25868806793,17.96491 l 1.5161471,-0.11442 C 2.5022263,893.30303 3.1693768,887.2389 4.6056544,880.55908 3.2554711,874.27965 2.5947285,868.54423 2.7462288,863.63831 Z"
       id="path3960"
       inkscape:connector-curvature="0" />
    <path
       style="fill:#ff7f2a;stroke:none;stroke-width:0.26458332"
       d="m 127.99998,1003.9534 c -6.88626,1.4807 -13.11988,2.143 -18.32247,1.8022 l -0.28607,1.459 c 6.07475,0.8847 12.28846,1.3445 18.60854,1.3445 5.61727,0 11.15133,-0.3711 16.57751,-1.0728 l -0.11442,-1.6591 c -4.80352,0.098 -10.37855,-0.5655 -16.46309,-1.8738 z"
       id="path3951"
       inkscape:connector-curvature="0" />
  </g>
</svg>
